<svg xmlns="http://www.w3.org/2000/svg" xmlns:xlink="http://www.w3.org/1999/xlink" width="1296" height="733" viewBox="0 0 1296 733"><defs><clipPath id="a"><rect width="1296" height="733" transform="translate(-17712 3635)" fill="#121b67" stroke="#707070" stroke-width="1"/></clipPath><clipPath id="b"><rect width="1392.445" height="631.936" fill="#121b67"/></clipPath></defs><g transform="translate(17712 -3635)" clip-path="url(#a)"><g transform="translate(-17665 3691.063)"><g transform="translate(0 0)" clip-path="url(#b)"><path d="M854.89,229.864h537.544v5.191H857.045l-120.7,120.7H491.475l-148.61-148.61H139.646a10.869,10.869,0,0,1-10.5,8.439,11.034,11.034,0,0,1,0-22.069,10.881,10.881,0,0,1,10.5,8.439H345.019l148.61,148.61H734.187Zm-160.4,85.574H533.9a9.354,9.354,0,0,0-9.12-7.669,9.488,9.488,0,1,0,0,18.977,9.354,9.354,0,0,0,9.12-7.669H696l111.4-111.4h476.874v-3.628H805.9Zm103.97,70.951a10.656,10.656,0,0,0-5.6-1.753,11.034,11.034,0,1,0,11.029,11.04,10.726,10.726,0,0,0-1.753-5.615l92.986-92.975H1271.3V291.9H892.967ZM327.248,284.182a10.854,10.854,0,0,0,1.552-5.325,11.029,11.029,0,1,0-11.029,11.029,10.711,10.711,0,0,0,5.894-1.942L465.521,429.8H732.971a10.874,10.874,0,0,0,10.515,8.428,11.029,11.029,0,1,0,0-22.058,10.874,10.874,0,0,0-10.515,8.428H467.665ZM134.768,169.127H21.533a10.871,10.871,0,0,0-10.5-8.428,11.029,11.029,0,0,0,0,22.058,10.872,10.872,0,0,0,10.515-8.439H136.923L263.464,47.777H655.88l98.646,98.634H1271.3V141.22H756.669L658.035,42.586H261.321Zm51.047-6.14a10.726,10.726,0,0,0-5.615-1.753,11.034,11.034,0,1,0,11.04,11.029,10.788,10.788,0,0,0-1.753-5.6l42.084-42.084h84.279l34.158,34.158a10.659,10.659,0,0,0-1.674,5.481,11.034,11.034,0,1,0,11.04-11.04,10.743,10.743,0,0,0-5.738,1.842l-35.643-35.632H229.417Zm574,328.755L915.56,336H1271.3v-3.639H914.064L758.31,488.115H432.736l-83.018-83.006H157.284a9.341,9.341,0,0,0-9.109-7.635,9.483,9.483,0,0,0,0,18.966,9.356,9.356,0,0,0,9.131-7.7H348.223l83.018,83.006ZM947.028,371.386H1271.3V366.2H944.885L783.94,527.14H453.41l-91.178,91.178H113.045a10.884,10.884,0,0,0-10.515-8.439,11.034,11.034,0,0,0,0,22.069,10.884,10.884,0,0,0,10.515-8.439h251.33l91.178-91.178H786.094ZM814.213,571.266,925.83,459.65h161.057a10.874,10.874,0,0,0,10.515,8.428,11.029,11.029,0,0,0,0-22.058,10.872,10.872,0,0,0-10.515,8.439h-163.2L812.059,566.076H497.871a10.881,10.881,0,0,0-10.5-8.439,11.034,11.034,0,1,0,0,22.069,10.881,10.881,0,0,0,10.5-8.439Zm500.472-161.5c-9.12,3.114-202.348,1.641-336.558-.156a10.88,10.88,0,0,0-10.538-8.584,11.034,11.034,0,0,0,0,22.069,10.885,10.885,0,0,0,10.482-8.294c129.444,1.753,334.5,3.8,339.549-.826l-2.389-2.6Zm-420.658,131.7a9.212,9.212,0,0,0-5.18-1.741,9.483,9.483,0,1,0,9.488,9.477,9.29,9.29,0,0,0-1.741-5.168l47.52-47.52h344.495v-3.628H942.619Zm-32.082,18.753a9.476,9.476,0,0,0-9.477,9.477,9.237,9.237,0,0,0,1.663,5.057l-29.738,29.738H743.006a9.368,9.368,0,0,0-9.1-7.535,9.488,9.488,0,0,0,0,18.977,9.368,9.368,0,0,0,9.1-7.535h83.007l30.876-30.876a9.268,9.268,0,0,0,5.057,1.663,9.483,9.483,0,1,0,0-18.966M525.454,459.65H693.276a10.874,10.874,0,0,0,10.515,8.428,11.029,11.029,0,1,0,0-22.058,10.859,10.859,0,0,0-10.5,8.439H525.454a10.872,10.872,0,0,0-10.515-8.439,11.029,11.029,0,1,0,0,22.058,10.874,10.874,0,0,0,10.515-8.428M300,527.14H139.646a10.881,10.881,0,0,0-10.5-8.439,11.034,11.034,0,0,0,0,22.069,10.881,10.881,0,0,0,10.5-8.439H300a10.871,10.871,0,0,0,10.5,8.439,11.034,11.034,0,0,0,0-22.069A10.871,10.871,0,0,0,300,527.14M181.06,592.688a10.881,10.881,0,0,0,10.5-8.439H329.224l53.023-53.023a10.726,10.726,0,0,0,5.615,1.753,11.029,11.029,0,1,0-11.04-11.029,10.788,10.788,0,0,0,1.753,5.6l-51.494,51.505H191.564a10.869,10.869,0,0,0-10.5-8.439,11.034,11.034,0,1,0,0,22.069m117.812-427.5H240.491a10.9,10.9,0,0,0-10.649-9.087,11.034,11.034,0,0,0,0,22.069,10.874,10.874,0,0,0,10.638-9.075h58.393a10.883,10.883,0,0,0,10.638,9.075,11.034,11.034,0,0,0,0-22.069,10.884,10.884,0,0,0-10.638,9.087m310.493,5.023a11.029,11.029,0,0,0,0-22.058,10.7,10.7,0,0,0-5.09,1.407l-28.1-28.1H524.7a10.881,10.881,0,0,0-10.5-8.439,11.034,11.034,0,1,0,0,22.069,10.881,10.881,0,0,0,10.5-8.439h49.339l26.4,26.4a10.805,10.805,0,0,0-2.1,6.128,11.024,11.024,0,0,0,11.029,11.029m94.884,96.748a11.029,11.029,0,1,0,0-22.058,10.871,10.871,0,0,0-10.5,8.428H501.12l-94.549-94.538a10.726,10.726,0,0,0,1.753-5.615A11.029,11.029,0,1,0,397.295,164.2a10.687,10.687,0,0,0,5.6-1.753l96.078,96.067H693.745a10.859,10.859,0,0,0,10.5,8.439m20.2-67a11.034,11.034,0,0,0,0-22.069,10.884,10.884,0,0,0-10.515,8.439H531.706l-61.574-61.563a10.719,10.719,0,0,0,1.384-5.068,11.029,11.029,0,1,0-11.029,11.04,10.82,10.82,0,0,0,6.162-2.121l62.9,62.9H713.938a10.884,10.884,0,0,0,10.515,8.439M310.5,428.015a9.483,9.483,0,1,0,0,18.966,9.261,9.261,0,0,0,5.168-1.741l45.622,45.611a9.326,9.326,0,0,0-1.741,5.18,9.483,9.483,0,1,0,9.488-9.488,9.222,9.222,0,0,0-5.18,1.753L318.24,442.671a9.222,9.222,0,0,0,1.753-5.18,9.485,9.485,0,0,0-9.488-9.477M947.073,254.857a9.343,9.343,0,0,0-9.12,7.669h-63.94L748.788,387.75H596.852a9.353,9.353,0,0,0-9.12-7.68,9.488,9.488,0,0,0,0,18.977,9.354,9.354,0,0,0,9.12-7.669H750.3L875.508,266.154h62.445a9.361,9.361,0,0,0,9.12,7.669,9.483,9.483,0,1,0,0-18.966m54.117,11.431h301.094v-3.907H1001.19a9.346,9.346,0,0,0-9.087-7.524,9.483,9.483,0,1,0,0,18.966,9.335,9.335,0,0,0,9.087-7.535M413.38,205.719a9.488,9.488,0,0,0,0,18.977,9.326,9.326,0,0,0,5.179-1.741l66.218,66.218.536.536H645.678a9.354,9.354,0,0,0,9.12,7.669,9.483,9.483,0,0,0,0-18.966,9.344,9.344,0,0,0-9.12,7.658H486.809l-65.682-65.693a9.261,9.261,0,0,0,1.741-5.168,9.488,9.488,0,0,0-9.488-9.488M279.661,315.058H194.936a9.354,9.354,0,0,0-9.12-7.669,9.488,9.488,0,1,0,0,18.977,9.354,9.354,0,0,0,9.12-7.669h84.726a9.372,9.372,0,0,0,9.12,7.669,9.488,9.488,0,1,0,0-18.977,9.372,9.372,0,0,0-9.12,7.669M483.907,380.07a9.222,9.222,0,0,0-5.179,1.753l-151.4-151.412-.525-.525H230.411a9.343,9.343,0,0,0-9.12-7.669,9.483,9.483,0,1,0,0,18.966,9.343,9.343,0,0,0,9.12-7.669h94.884L476.16,384.379a9.241,9.241,0,0,0-1.741,5.18,9.483,9.483,0,1,0,9.488-9.488M844.319,173.537h419.631v-3.628H844.319a9.354,9.354,0,0,0-9.12-7.669,9.488,9.488,0,0,0,0,18.977,9.353,9.353,0,0,0,9.12-7.68M684.859,135.2a9.261,9.261,0,0,0-5.168,1.741L625.573,82.828l-.536-.525H311.531a9.352,9.352,0,0,0-9.12-7.669,9.483,9.483,0,1,0,0,18.966,9.343,9.343,0,0,0,9.12-7.669H623.542l53.581,53.593a9.187,9.187,0,0,0-1.753,5.168,9.488,9.488,0,1,0,9.488-9.488m62.768-85.328a9.149,9.149,0,0,0,5.057-1.663L790.2,85.73l.581.569h75.505a9.355,9.355,0,0,0,9.086,7.535,9.488,9.488,0,0,0,0-18.977,9.355,9.355,0,0,0-9.086,7.535h-73.9L755.452,45.455a9.3,9.3,0,0,0,1.663-5.057,9.483,9.483,0,1,0-9.488,9.477M704.249,53.2a9.261,9.261,0,0,0,5.168-1.741l64.242,64.231.525.525H885.231a9.343,9.343,0,0,0,9.12,7.669,9.483,9.483,0,0,0,0-18.966,9.343,9.343,0,0,0-9.12,7.669H775.69L711.985,48.893a9.251,9.251,0,0,0,1.753-5.18,9.488,9.488,0,1,0-9.488,9.488M466.057,160.186a9.488,9.488,0,0,0,0,18.977,9.187,9.187,0,0,0,5.168-1.753l46.649,46.66.536.525H679.456v-3.628H519.907l-46.113-46.125a9.187,9.187,0,0,0,1.753-5.168,9.495,9.495,0,0,0-9.488-9.488M192.089,64.833a9.488,9.488,0,0,0,9.488-9.488,9.187,9.187,0,0,0-1.753-5.168L238.7,11.3H403.613a9.353,9.353,0,0,0,9.12,7.68,9.488,9.488,0,1,0,0-18.977,9.372,9.372,0,0,0-9.12,7.669H237.2l-39.94,39.94a9.177,9.177,0,0,0-5.168-1.741,9.483,9.483,0,1,0,0,18.966" transform="translate(0 -0.005)" fill="#121b67"/></g></g></g></svg>